<svg width="1579" height="291" viewBox="0 0 1579 291" fill="none" xmlns="http://www.w3.org/2000/svg">
<g clip-path="url(#clip0)">
<rect x="33" y="28" width="243" height="236" rx="51" fill="black" stroke="#F9F9F9" stroke-width="22"/>
<g clip-path="url(#clip1)">
<rect width="196" height="176" transform="translate(57 51)" fill="black"/>
<path d="M158.195 222.946C156.212 225.122 152.788 225.122 150.805 222.946L58.3047 121.462C57.4653 120.541 57 119.34 57 118.094L57 55.75C57 52.9886 59.2386 50.75 62 50.75L247.939 50.75C250.701 50.75 252.939 52.9886 252.939 55.75L252.939 117.063C252.939 118.309 252.474 119.51 251.635 120.431L158.195 222.946Z" fill="#3ECF8E" fill-opacity="0.6"/>
<path d="M66.4874 225.368C65.5399 226.408 64.1985 227 62.792 227L62 227C59.2386 227 57 224.761 57 222L57 55.75C57 52.9886 59.2386 50.75 62 50.75L214.325 50.75C218.669 50.75 220.946 55.9079 218.02 59.1182L66.4874 225.368Z" fill="#3ECF8E" fill-opacity="0.6"/>
<path d="M243.66 225.368C244.608 226.408 245.949 227 247.356 227L248.148 227C250.909 227 253.148 224.761 253.148 222L253.148 55.75C253.148 52.9886 250.909 50.75 248.148 50.75L95.8227 50.75C91.4789 50.75 89.2012 55.9079 92.1274 59.1182L243.66 225.368Z" fill="#3ECF8E" fill-opacity="0.6"/>
<path d="M57 80.5C57 64.2076 70.2076 51 86.5 51H57V80.5Z" fill="black"/>
<path d="M253 80.5C253 64.2076 239.792 51 223.5 51H253V80.5Z" fill="black"/>
</g>
<path d="M475.873 105.911C472.305 88.294 457.81 65.548 420.569 65.548C391.133 65.548 366.826 87.402 366.826 113.939C366.826 137.577 382.882 153.41 406.966 158.316L429.266 162.999C442.869 165.898 450.451 174.149 450.451 184.407C450.451 196.672 440.639 206.261 421.684 206.261C398.938 206.261 387.119 191.097 385.558 174.595L360.582 181.731C363.035 204.477 381.544 230.345 421.684 230.345C457.81 230.345 477.657 206.93 477.657 182.4C477.657 160.1 462.716 142.483 434.841 136.908L412.095 132.225C399.83 129.549 393.586 121.967 393.586 111.932C393.586 99.89 404.736 89.186 420.792 89.186C441.977 89.186 450.228 103.681 451.789 113.493L475.873 105.911ZM527.999 163.222C528.445 149.396 536.25 138.692 550.522 138.692C566.801 138.692 572.822 149.396 572.822 162.776V227H598.69V158.316C598.69 134.455 585.756 115.277 558.996 115.277C547.623 115.277 535.358 119.291 527.999 128.88V65.548H502.131V227H527.999V163.222ZM648.245 160.769C649.137 149.173 658.503 136.685 674.782 136.685C692.622 136.685 701.096 148.058 701.542 160.769H648.245ZM704.441 189.09C700.873 199.794 692.845 208.045 677.235 208.045C661.179 208.045 648.245 196.226 647.576 179.724H726.964C727.187 179.278 727.633 175.71 727.633 171.473C727.633 137.131 708.009 115.054 674.559 115.054C647.13 115.054 621.708 137.8 621.708 172.142C621.708 208.937 647.799 230.345 677.235 230.345C703.326 230.345 720.497 214.958 726.295 196.003L704.441 189.09ZM770.416 160.769C771.308 149.173 780.674 136.685 796.953 136.685C814.793 136.685 823.267 148.058 823.713 160.769H770.416ZM826.612 189.09C823.044 199.794 815.016 208.045 799.406 208.045C783.35 208.045 770.416 196.226 769.747 179.724H849.135C849.358 179.278 849.804 175.71 849.804 171.473C849.804 137.131 830.18 115.054 796.73 115.054C769.301 115.054 743.879 137.8 743.879 172.142C743.879 208.937 769.97 230.345 799.406 230.345C825.497 230.345 842.668 214.958 848.466 196.003L826.612 189.09ZM907.305 85.172H883.89V101.451C883.89 111.04 878.761 118.399 867.165 118.399H861.59V141.368H881.66V196.003C881.66 216.296 894.148 228.338 914.218 228.338C923.584 228.338 928.49 226.554 930.051 225.885V204.477C928.936 204.7 924.699 205.369 921.131 205.369C911.542 205.369 907.305 201.355 907.305 191.766V141.368H929.828V118.399H907.305V85.172ZM1132.14 227V68.893H1095.79L1045.17 189.536L993.881 68.893H958.201V227H984.292V111.04L1033.13 227H1056.32L1105.6 110.594V227H1132.14ZM1185.49 160.769C1186.38 149.173 1195.75 136.685 1212.03 136.685C1229.87 136.685 1238.34 148.058 1238.79 160.769H1185.49ZM1241.69 189.09C1238.12 199.794 1230.09 208.045 1214.48 208.045C1198.43 208.045 1185.49 196.226 1184.82 179.724H1264.21C1264.43 179.278 1264.88 175.71 1264.88 171.473C1264.88 137.131 1245.26 115.054 1211.81 115.054C1184.38 115.054 1158.96 137.8 1158.96 172.142C1158.96 208.937 1185.05 230.345 1214.48 230.345C1240.57 230.345 1257.74 214.958 1263.54 196.003L1241.69 189.09ZM1322.38 85.172H1298.97V101.451C1298.97 111.04 1293.84 118.399 1282.24 118.399H1276.67V141.368H1296.74V196.003C1296.74 216.296 1309.22 228.338 1329.29 228.338C1338.66 228.338 1343.57 226.554 1345.13 225.885V204.477C1344.01 204.7 1339.78 205.369 1336.21 205.369C1326.62 205.369 1322.38 201.355 1322.38 191.766V141.368H1344.9V118.399H1322.38V85.172ZM1365.01 197.564C1365.01 214.735 1379.06 230.345 1401.81 230.345C1419.42 230.345 1430.13 221.425 1435.26 213.174C1435.26 221.871 1436.15 226.331 1436.37 227H1460.45C1460.23 225.885 1459.12 219.418 1459.12 209.606V155.64C1459.12 134.009 1446.41 115.054 1412.96 115.054C1386.2 115.054 1369.25 131.779 1367.24 150.511L1390.88 155.863C1391.99 144.936 1399.58 136.239 1413.18 136.239C1427.45 136.239 1433.69 143.598 1433.69 152.741C1433.69 156.532 1431.91 159.654 1425.67 160.546L1397.79 164.783C1379.28 167.459 1365.01 178.163 1365.01 197.564ZM1406.71 210.052C1396.45 210.052 1390.88 203.362 1390.88 196.003C1390.88 187.083 1397.35 182.623 1405.37 181.285L1433.69 177.048V181.954C1433.69 203.139 1421.21 210.052 1406.71 210.052ZM1516.26 227V65.548H1490.39V227H1516.26Z" fill="white"/>
</g>
<defs>
<clipPath id="clip0">
<rect width="1579" height="291" fill="white"/>
</clipPath>
<clipPath id="clip1">
<rect width="196" height="176" fill="white" transform="translate(57 51)"/>
</clipPath>
</defs>
</svg>
